<svg width="391" height="82" viewBox="0 0 391 82" fill="none" xmlns="http://www.w3.org/2000/svg">
<path d="M232.029 20.5763V23.2027C232.029 24.5158 233.34 25.829 234.651 25.829H238.584L229.408 36.3346H224.164V7.44434H211.055V10.0707C211.055 11.3288 212.393 12.6971 213.677 12.6971H218.92V57.3457H211.055V62.5985H232.029V57.3457H224.164V41.5874H226.786C228.718 41.5874 229.465 41.7699 230.431 43.3037L239.051 57.9104C240.984 61.217 242.341 62.5985 246.449 62.5985H250.382V57.3457H247.76C245.505 57.3457 245.011 57.1027 244.126 55.7318L236.071 42.173C234.46 39.3484 233.332 38.9452 233.251 38.9452L245.138 25.829H250.382V20.5763H232.029Z" fill="white"/>
<path d="M284.466 49.4665C283.278 49.4665 281.844 50.8204 281.844 52.0929V57.3457H260.869L287.088 25.829V20.5763H254.315V33.7082H256.937C258.248 33.7082 259.559 32.3399 259.559 31.0818V25.829H279.222L253.004 57.3457V62.5985H287.088V49.4665H284.466Z" fill="white"/>
<path d="M200.568 58.6589V62.5985H207.122V56.0326H203.19C201.919 56.0326 200.568 57.3457 200.568 58.6589Z" fill="white"/>
<path d="M81.2759 14.0103V10.0707C81.2759 8.75752 82.6275 7.44434 83.8978 7.44434H87.8304V14.0103H81.2759Z" fill="white"/>
<path d="M144.199 10.0708V20.5763H158.619C158.619 20.5763 157.062 22.0931 155.382 24.2336C154.41 25.4706 153.524 25.8291 152.065 25.8291H144.199V46.8402C144.199 55.4311 149.195 57.3457 152.065 57.3457C154.934 57.3457 155.997 56.0326 155.997 56.0326V61.2853C155.997 61.2853 155.127 62.5985 152.065 62.5985C149.001 62.5985 138.956 60.8493 138.956 46.8402V25.8291H133.712C132.401 25.8291 131.09 24.4883 131.09 23.2027V20.5763H138.956V10.0708H144.199Z" fill="white"/>
<path fill-rule="evenodd" clip-rule="evenodd" d="M31.4616 35.0214C31.4616 24.1179 26.0358 20.5763 17.0417 20.5763C8.04763 20.5763 1.93096 25.5086 1.93096 25.5086L4.38497 28.5946C4.8818 29.2197 5.75485 29.3904 6.44439 28.9899C8.43696 27.829 13.2244 25.8291 17.0417 25.8291C22.6301 25.8291 26.218 27.4364 26.218 35.0214V36.3346H23.5962C15.5224 36.3346 0 37.6268 0 50.7797C0 59.0923 7.1195 63.9117 13.109 63.9117C20.5067 63.9117 23.0013 60.9733 25.0235 58.5915C25.3695 58.1838 25.7017 57.7925 26.0424 57.435C26.0424 60.2176 28.0284 62.5985 31.4616 62.5985H38.0161V57.3457H32.7725C31.8824 57.3457 31.4616 56.9242 31.4616 56.0325V35.0214ZM26.218 42.9006C26.218 50.0023 21.1724 58.6589 13.109 58.6589C7.51933 58.6589 5.2436 54.9754 5.2436 50.7797C5.2436 42.4475 20.3229 41.5874 23.5962 41.5874H26.218V42.9006Z" fill="white"/>
<path fill-rule="evenodd" clip-rule="evenodd" d="M114.048 20.5763C123.043 20.5763 128.468 24.1179 128.468 35.0214V56.0325C128.468 56.9242 128.889 57.3457 129.779 57.3457H135.023V62.5985H128.468C125.035 62.5985 123.049 60.2176 123.049 57.435C122.709 57.7925 122.376 58.1838 122.03 58.5915C120.008 60.9733 117.513 63.9117 110.116 63.9117C104.126 63.9117 97.0068 59.0923 97.0068 50.7797C97.0068 37.6268 112.529 36.3346 120.603 36.3346H123.225V35.0214C123.225 27.4364 119.637 25.8291 114.048 25.8291C110.231 25.8291 105.444 27.829 103.451 28.9899C102.762 29.3904 101.889 29.2197 101.392 28.5946L98.9377 25.5086C98.9377 25.5086 105.054 20.5763 114.048 20.5763ZM110.116 58.6589C118.179 58.6589 123.225 50.0023 123.225 42.9006V41.5874H120.603C117.33 41.5874 102.25 42.4475 102.25 50.7797C102.25 54.9754 104.526 58.6589 110.116 58.6589Z" fill="white"/>
<path fill-rule="evenodd" clip-rule="evenodd" d="M175.661 20.5763C184.655 20.5763 190.081 24.1179 190.081 35.0214V56.0325C190.081 56.9242 190.501 57.3457 191.392 57.3457H196.635V62.5985H190.081C186.646 62.5985 184.661 60.2176 184.661 57.435C184.321 57.7925 183.989 58.1838 183.643 58.5915C181.62 60.9733 179.126 63.9117 171.728 63.9117C165.739 63.9117 158.619 59.0923 158.619 50.7797C158.619 37.6268 174.141 36.3346 182.215 36.3346H184.837V35.0214C184.837 27.4364 181.249 25.8291 175.661 25.8291C171.843 25.8291 167.056 27.829 165.063 28.9899C164.374 29.3904 163.501 29.2197 163.004 28.5946L160.55 25.5086C160.55 25.5086 166.667 20.5763 175.661 20.5763ZM171.728 58.6589C179.791 58.6589 184.837 50.0023 184.837 42.9006V41.5874H182.215C178.942 41.5874 163.863 42.4475 163.863 50.7797C163.863 54.9754 166.138 58.6589 171.728 58.6589Z" fill="white"/>
<path d="M87.8303 57.3457V20.5763H60.3014V25.8291H66.8559L56.3687 54.7193L45.8815 25.8291H51.1251V20.5763H31.4616C31.4616 20.5763 32.5876 22.093 34.2682 24.2335C35.2396 25.4705 36.5583 25.8291 38.0161 25.8291H40.6379L53.7469 62.5984H58.9905L72.0995 25.8291H82.5867V57.3457H78.654C77.3431 57.3457 76.0322 58.714 76.0322 59.9721V62.5984H95.6957V57.3457H87.8303Z" fill="white"/>
<path d="M334.106 0.0535523C334.106 0.0535523 338.601 -0.308461 340.703 0.849982C342.68 1.93922 363.251 29.215 366.545 33.6128C366.96 34.1626 367.609 34.5256 368.344 34.5531C380.448 34.9956 390.17 36.9388 390.803 40.3818C390.84 40.4934 390.858 40.6241 390.857 40.7543C390.858 40.8844 390.84 41.0151 390.803 41.1267C390.17 44.5698 380.448 46.513 368.344 46.9555C367.609 46.983 366.96 47.346 366.545 47.8958C363.251 52.2936 342.68 79.5693 340.703 80.6586C338.601 81.817 334.106 81.455 334.106 81.455C334.106 81.455 343.966 60.241 345.344 55.6797C346.504 51.7699 346.866 48.005 346.721 46.4845C335.991 45.9053 326.275 45.0365 321.78 44.24L313.152 54.3764C313.152 54.3764 312.79 54.8108 311.992 54.8832C311.267 54.9556 308.222 54.9556 308.222 54.9556L311.775 42.0679C311.775 42.0679 310.615 41.6335 309.817 41.3439C309.165 41.1267 309.092 40.8267 309.092 40.7543C309.092 40.6819 309.165 40.3818 309.817 40.1646C310.615 39.875 311.775 39.4406 311.775 39.4406L308.222 26.5529C308.222 26.5529 311.267 26.5529 311.992 26.6253C312.79 26.6977 313.152 27.1322 313.152 27.1322L321.78 37.2685C326.275 36.4721 335.991 35.6033 346.721 35.024C346.866 33.5036 346.504 29.7386 345.344 25.8289C343.966 21.2675 334.106 0.0535523 334.106 0.0535523Z" fill="white"/>
</svg>
